<svg xmlns="http://www.w3.org/2000/svg" xmlns:xlink="http://www.w3.org/1999/xlink" viewBox="0 0 1245.2 968"><defs><style>.cls-1{fill:none;}.cls-2{clip-path:url(#clip-path);}.cls-3{stroke-miterlimit:10;fill:url(#linear-gradient);stroke:url(#Gold_Dust);}.cls-4{fill:#232338;}.cls-5{fill:#110801;}.cls-6{fill:#2a1b2b;}.cls-7{fill:#412442;}.cls-8{fill:#efc04b;}.cls-9{fill:#80ff86;}.cls-10{fill:#303718;}.cls-11{fill:#9d958b;}.cls-12{fill:#33334f;}.cls-13{fill:#686b6b;}.cls-14{fill:#141014;}.cls-15{fill:#c1b4a4;}.cls-16{fill:#433132;}.cls-17{fill:#83fff9;}.cls-18{fill:#194644;}.cls-19{fill:url(#linear-gradient-2);}.cls-20{fill:#5a5b5b;}.cls-21{fill:#101019;}.cls-22{fill:#35383a;}.cls-23{fill:#cccece;}.cls-24{fill:#381f06;}.cls-25{fill:#b2831b;}</style><clipPath id="clip-path"><rect class="cls-1" x="7" y="0.33" width="1232.94" height="967.45"/></clipPath><linearGradient id="linear-gradient" x1="624.43" y1="489.09" x2="624.43" y2="-82.5" gradientUnits="userSpaceOnUse"><stop offset="0" stop-color="#fbdb17"/><stop offset="0.06" stop-color="#f6d214"/><stop offset="0.17" stop-color="#e8b80c"/><stop offset="0.29" stop-color="#d49400"/><stop offset="0.47" stop-color="#e599a3"/><stop offset="0.56" stop-color="#e097a2"/><stop offset="0.67" stop-color="#d191a0"/><stop offset="0.79" stop-color="#b9889c"/><stop offset="0.92" stop-color="#977b97"/><stop offset="1" stop-color="#7e7193"/></linearGradient><linearGradient id="Gold_Dust" x1="1.28" y1="203.29" x2="1247.59" y2="203.29" gradientUnits="userSpaceOnUse"><stop offset="0" stop-color="#ff7300"/><stop offset="0.18" stop-color="#f97c01"/><stop offset="0.47" stop-color="#ea9602"/><stop offset="0.55" stop-color="#e59e03"/><stop offset="0.87" stop-color="#e5c500"/><stop offset="0.99" stop-color="#bf6f00"/></linearGradient><linearGradient id="linear-gradient-2" x1="639.92" y1="749.02" x2="581.42" y2="1080.84" gradientUnits="userSpaceOnUse"><stop offset="0" stop-color="#514c61"/><stop offset="0.18" stop-color="#3c3c55"/><stop offset="0.39" stop-color="#2d314d"/><stop offset="0.63" stop-color="#252a48"/><stop offset="1" stop-color="#222847"/></linearGradient></defs><title>evening-time-mt-vic</title><g id="Layer_12" data-name="Layer 12"><g class="cls-2"><g id="Layer_8" data-name="Layer 8"><g id="Layer_6" data-name="Layer 6"><polygon class="cls-3" points="1247.08 483.86 1.78 489.09 6.37 -82.5 1240.37 -77.5 1247.08 483.86"/></g><polyline class="cls-4" points="268.13 295.23 269.67 286.29 271.3 276.89 272.84 268.03 283.67 205.5 299.39 268.74 301.46 277.06 303.29 284.43 305.68 294.05"/><line class="cls-5" x1="442.39" y1="340.74" x2="415.84" y2="340.03"/><path class="cls-6" d="M853.6,822.6,840.5,564.4s-41.4-25.6-132.2-69c-58.8-28.2-41-20.3-52.7-27.6-4.4-6.5,47.87-139.9-7.73-128.3-25.4,5.3-51.32,14-65.42-6-4.5-6.5-65.6-46.2-109.45-26l-32-6s-15.3,12.5-70.8,9.1a3.08,3.08,0,0,1-1-.1c-41.5-37.2-200.7-1.2-235.8,7.3C48,325.2,6.8,336.2,6.8,336.2l.1,77.4L12,964.7Z"/><path class="cls-7" d="M1248.67,451.5l.1-.9c.5-45.6.3-73.9-.4-60.8-4.4,21.8-46.9,21.3-86.6,11.7-45.7-11.1-68-34.3-68-34.3s2.8-45.5-243-83.5-239-17.8-239-17.8-202.85,194-228.35,150.6S-8,706-8,706l11.8,27.4,20.4,11,160.3,30.7,122.8,20,102.1,21.7,197.9,29.3L861,870.4l373.4,18.6s2-55.4,4.3-129.5l10.2,6Z"/><path class="cls-8" d="M432.87,274.5a6.5,6.5,0,0,1-6.5,6.5"/><g id="Layer_5" data-name="Layer 5"><polyline class="cls-9" points="1127.78 710.48 1098.78 716.04 1133.98 712.15 1141.78 718.27 1145.78 733.85 1134.78 739.2"/><polyline class="cls-9" points="993.78 727.17 1004.78 733.85 1134.78 734.41 1133.78 710.48 1151.78 724.95 1156.28 736.97 1056.78 748.32 1004.78 757.23 993.78 727.17"/><polygon class="cls-10" points="758.78 740.53 774.28 730.29 821.28 733.85 827.48 747.88 758.78 740.53"/><polygon class="cls-10" points="675.78 719.38 694.78 714.93 720.78 719.38 737.78 711.59 737.78 730.29 675.78 719.38"/></g><path class="cls-11" d="M668,710.14s35.7,13.69,109.7,23.71S885.58,746,885.58,746l-.7,20.48-191.2-18.14-43-10L615,698.12Z"/><path class="cls-12" d="M376.88,649.48s90.8,6.46,136.8,19.81,28,11.13,107,28.94,69,23.37,137,35.62,70,6.68,70,6.68l-2,47-175.3,8.24-191.7-72.91-54-7.79"/><path class="cls-11" d="M809.28,808.43l18.5-67.9s33,5.57,110,7.79,191-14.47,191-14.47c116-13.36,118-14.47,118-14.47v119.1"/><path class="cls-12" d="M1246.78,727.17s-63,7.79-207,21.15-275.9-10.13-275.9-10.13l-.1,89.16,372.5,23.71,110.5-23.71"/><path class="cls-12" d="M321.78,698.23l158,21.15s11-47.86-37-59c-30-7-22.5-5.23-32.4-6.23-6-.56-18.2-2.11-48.6-7.12-81-13.36-141.3-7.68-141.3-7.68s31.3-.11-105.7,4.34-113,5.57-113,5.57V687.1"/><path class="cls-12" d="M763.78,748.66c129.9,13,12.9,11.91,129.9,11.91s15,11.13,117,0,4-3.34,102-12.24,39.4,3.12,98-7.79l36-6.68v83.48l-386-7.79-91-13.36"/><g id="Layer_3" data-name="Layer 3"><path class="cls-13" d="M734.38,772.48s-94.5-42.3-342.6-89.38-98.1,136.69-98.1,136.69L707,863l30.7-60.11Z"/><path class="cls-13" d="M1244.38,777.93s-1.1.11-3.3.22C1196.68,780.71,725,807,688,755.33c-38.9-54.21-52.2,70.46-52.2,70.46l314,49.75,183.3,3,114-31.17"/><path class="cls-4" d="M1247.08,834l-.3-100.18s-152,16.7-213.6,24.27-90.4,3.56-144.7,2.45S708,733.85,708,733.85c-32.4-7.57-57.4-14-57.4-14s-54.7-14.92-104.7-26-26-10-107-18.92-58-14.47-141-15.58-83,0-83,0h-10c-35,0-44.7.67-76.8,3.23h0l-4.9.33c-7.2.56-15.5,1.22-25.3,2-48.2,3.67-81.6,11.24-92.2,13.91l-3.8.56.5,96.28,37.2,1.11,155.9,31.72h126l134-18.59s8-4.34,18.4-11.24l73.9,10.8,167.3,9.91,29.7,17.92,135,28.94,32.3-25.6ZM100.58,757.89l23.4-81.7c28.3-.56,59.7-1,91.9-1.11l4.8,66.56,10.1,1.45Z"/></g><g id="Layer_10" data-name="Layer 10"><polyline class="cls-12" points="346.78 622.54 360.78 615.87 440.78 625.88 431.78 632.56"/><line class="cls-1" x1="240.78" y1="606.96" x2="248.78" y2="603.62"/><path class="cls-14" d="M1193.08,507.56l-22.2,3.12h0c-5.1.67-10.2,1.22-15.2,1.78-44,4.45-58-2.23-151-12.24s-103,4.45-172,28.94-50,14.47-136,22.26-46,7.79-122,55.65-104,42.3-104,42.3l303.5,89.94L963,748.54l283.7-25.71V498C1246.78,497.88,1225.78,502.56,1193.08,507.56Z"/></g><g id="Layer_13" data-name="Layer 13"><line class="cls-1" x1="1027.98" y1="764.91" x2="1098.78" y2="758.34"/><path class="cls-4" d="M1143.38,752.44h0c-85.7,10.35-98.7,12.58-98.7,12.58-33,2.23-76.7,2.45-76.7,2.45"/></g><g id="Layer_4" data-name="Layer 4"><path class="cls-15" d="M1040.38,797.19s-250.7,1.67-339-31.28-35,86.71-35,86.71L1048,875.32Z"/><line class="cls-1" x1="926.88" y1="784.5" x2="947.88" y2="795.63"/><path class="cls-16" d="M1065.78,760.57l.2.45h-.4c-73.5,9.91-156.6,6.9-221.6,1.45-16.2-1.34-31.2-2.89-44.7-4.45-24.7-3.78-78.7-15.36-114.4-23.15C273.88,615.53,10,684.43,10,684.43H1.88V934.87l475.8,5.23s643.8,56.43,568.9-45.75l25.2,11.58,109.6-39.85,65.4,26.83V741.53Z"/><polyline class="cls-12" points="329.78 638.13 346.78 638.13 346.78 651.48 323.78 641.47"/></g><g id="Layer_2" data-name="Layer 2"><path class="cls-17" d="M361.88,886.45c1.9,0,1.9-3.34,0-3.34s-2,3.34,0,3.34Z"/><polyline class="cls-12" points="51.48 676.31 1.78 686.77 1.78 681.54"/><path class="cls-18" d="M418,723.28l5.2.67Z"/><path class="cls-19" d="M1246.78,893l-27.5-14.47-5.7-3.23h0c-91.2-65.78-456.1-90.83-456.1-90.83S604.38,751,495,735c-76.1-11.13-81.1-12.13-77.1-11.69-15-1.78-60.8-7.23-113.3-12.58-9.2-.89-18.5-1.89-28-2.78h0c-9.9-1-20-1.89-29.9-2.78-29.4-2.56-58.2-4.79-82.6-5.9-9.7-.45-18.7-.78-26.8-.78-3,0-5.7-.11-8.4-.11l-4.7-.33-5.3.22c-60.8-.56-14.5.33-14.5.33l-21.2-.22-.6-.33-.2.33-17.7-.11v-.11h-63l.4,240.76-.4,39.74h23.1v.56l234.9-.22,117.2.22-.1-.33,830.1-.67h11.4l28.4.33V893Z"/><polygon class="cls-4" points="907.78 649.26 993.98 651.78 993.78 744.98 907.78 744.98 907.78 649.26"/></g><path class="cls-20" d="M1009.78,748.32c110-5.57-17,7.79,100-6.68s0-3.34,137-18.92"/></g><g id="Buildings"><g id="Layer_14" data-name="Layer 14"><rect class="cls-4" x="794.78" y="651.78" width="102" height="82.07"/><rect class="cls-4" x="672.78" y="477.84" width="48" height="120.21"/><rect class="cls-4" x="240.78" y="606.96" width="83" height="26.71"/><polyline class="cls-21" points="720.78 719.38 614.78 674.86 614.78 644.81 720.78 682.65"/><polyline class="cls-21" points="574.78 598.06 574.78 649.26 574.78 659.28 591.78 664.84 591.78 598.06 574.78 589.15"/><polygon class="cls-4" points="1134.78 733.85 1004.78 733.85 1004.78 703.8 1072.28 703.8 1134.78 703.8 1134.78 733.85"/><polyline class="cls-21" points="1139.78 644.81 1115.78 638.13 1115.78 703.8 1139.78 714.93"/><polyline class="cls-21" points="1004.78 703.8 993.78 698.23 993.78 727.17 1004.78 733.85"/><polyline class="cls-4" points="628.78 589.15 628.78 640.35 614.78 644.81 591.78 658.72 591.78 598.06"/><polyline class="cls-4" points="591.78 664.84 609.78 659.28 614.78 659.28 614.78 638.13 591.78 644.81"/><line class="cls-1" x1="722.78" y1="668.18" x2="724.78" y2="674.86"/><polyline class="cls-4" points="347.28 645.92 431.28 655.83 431.78 631.45 346.78 622.54"/><polyline class="cls-12" points="431.78 657.05 431.78 632.56 440.78 626.22 440.78 651.71 444.78 651.48 444.78 664.84"/><polyline class="cls-4" points="89.78 644.81 1.78 654.82 1.78 598.06 89.78 592.49"/><polyline class="cls-4" points="222.78 569.12 222.78 639.13 189.28 641.13 189.78 573.57 189.78 569.12"/><polyline class="cls-21" points="495.78 583.59 444.78 574.68 444.88 657.5 495.78 665.95"/><polyline class="cls-4" points="517.78 574.68 517.78 611.41 495.78 665.95 495.78 583.59"/><polyline class="cls-4" points="720.78 682.65 720.78 719.38 738.78 712.59 738.78 671.52"/><polyline class="cls-21" points="769.78 659.28 769.78 732.74 738.78 727.17 737.78 653.71"/><polyline class="cls-4" points="778.78 663.73 778.78 727.84 769.78 732.74 769.78 655.94 778.78 655.94"/><polyline class="cls-21" points="907.78 744.98 899.78 741.64 899.78 644.81 907.78 649.26"/><rect class="cls-4" x="1139.78" y="644.81" width="107" height="70.12"/><polyline class="cls-4" points="520.38 657.05 517.78 611.41 495.78 615.87 495.78 665.95"/></g><g id="Layer_15" data-name="Layer 15"><polyline class="cls-22" points="720.78 477.85 724.78 477.85 724.78 594.72 720.78 598.06"/><polyline class="cls-4" points="323.78 633.67 323.78 641.91 240.78 638.35 240.48 623.99"/><polyline class="cls-12" points="329.78 603.62 329.78 638.13 323.78 641.47 323.78 606.96"/></g><g id="Layer_16" data-name="Layer 16"><polyline class="cls-12" points="1246.8 647.03 1139.78 647.03 1115.78 638.13 1246.78 638.13"/><line class="cls-1" x1="1134.78" y1="703.8" x2="1091.78" y2="718.27"/><polyline class="cls-12" points="329.78 603.62 323.78 606.96 240.78 606.96 248.78 603.62"/><polyline class="cls-12" points="189.78 569.12 222.78 569.12 220.78 566.89 191.78 566.89"/><polyline class="cls-12" points="89.78 592.49 78.78 585.81 1.78 592.49 1.78 599.17"/><polyline class="cls-12" points="444.78 574.68 495.78 583.59 520.78 574.68 466.78 565.78"/><polyline class="cls-12" points="609.78 580.25 628.78 589.15 591.78 598.06 574.78 589.15"/><polyline class="cls-12" points="614.78 644.81 644.78 631.45 737.78 668.18 737.78 677.09 720.78 685.99"/><polyline class="cls-12" points="778.78 655.94 769.78 659.28 737.78 653.71 750.78 651.48"/><polyline class="cls-12" points="794.78 652.97 797.78 645.99 894.78 645.99 896.78 652.97"/><polyline class="cls-12" points="908.21 651.78 899.78 644.81 985.78 644.81 993.98 651.78"/><line class="cls-1" x1="993.78" y1="698.12" x2="1004.78" y2="703.8"/></g><g id="Layer_18" data-name="Layer 18"><polyline class="cls-12" points="1005.23 705.58 1133.78 705.58 1115.78 698.23 993.98 698.23"/><polyline class="cls-23" points="1134.78 733.85 1133.98 712.15 1133.78 710.48"/><polyline class="cls-12" points="585.78 683.32 700.58 711.59 676.78 722.72 688.18 724.84 700.78 727.17 729.78 733.85 774.28 742.2 772.88 733.63"/></g><g id="Layer_19" data-name="Layer 19"><rect class="cls-4" x="1074.78" y="705.58" width="59" height="28.27"/><polyline class="cls-24" points="1056.78 520.14 1003.78 520.14 932.78 520.14 929.78 477.85 950.78 458.92 967.78 477.85 1024.78 477.85 1041.78 458.92 1056.78 477.85"/><polyline class="cls-24" points="929.78 520.14 929.78 480.63 996.28 520.14"/></g><g id="Layer_20" data-name="Layer 20"><polyline class="cls-5" points="929.78 477.85 907.78 474.51 907.78 511.24 929.78 520.14"/><polyline class="cls-12" points="1025.78 477.85 1028.78 458.92 952.78 461.15 967.78 477.85"/></g><g id="Layer_21" data-name="Layer 21"><polyline class="cls-4" points="1025.78 458.92 1025.78 477.85 1041.78 458.92"/><polyline class="cls-4" points="923.78 458.92 907.78 474.51 929.78 477.85 950.78 458.92"/><polyline class="cls-12" points="769.78 732.74 794.78 740.09 794.78 727.51 778.78 727.17"/><polyline class="cls-12" points="654.78 691.55 720.78 719.38 710.78 728.29 661.78 718.27 609.78 703.8 582.78 694.89 602.78 685.99"/><polyline class="cls-22" points="738.78 722.72 737.78 685.99 753.78 700.46"/><polyline class="cls-11" points="899.78 748.32 899.78 733.85 876.78 733.85 879.78 748.32"/><polygon class="cls-12" points="704.21 711.48 644.33 687.24 737.26 735.25 738.85 711.59 720.78 718.01 704.21 711.48"/><path class="cls-12" d="M614.88,675.08l.2-19.26-23.3,8.9-9.4-3.34a100.32,100.32,0,0,0-23-6.46l-8.6-1.34-30-2.23v5.57c-2.7.78-5.5,1.89-8.1,2.78l-31.9,11.69,219.8,40.07-59.8-25.6Z"/><polygon class="cls-12" points="1240.71 714.11 1139.78 713.74 1133.98 712.15 1133.79 733.06 1041.78 733.85 1041.98 733.96 1004.88 733.04 993.78 727.17 993.88 727.62 993.78 727.51 993.78 743.98 908.05 743.79 898.78 739.42 899.98 732.74 895.78 733.85 817.88 732.74 794.78 731.84 774.28 730.29 763.78 739.42 820.78 748.66 819.48 741.75 856.78 748.99 998.58 752.44 999.78 758.34 1152.78 741.64 1246.78 733.85 1246.78 714.11 1240.71 714.11"/><polyline class="cls-12" points="437.78 641.47 444.78 641.47 444.78 655.94 438.28 657.05"/><polyline class="cls-21" points="753.78 677.09 763.78 730.51 737.78 724.39 737.88 662.84"/></g></g><g id="Layer_17" data-name="Layer 17"><polyline class="cls-4" points="520.78 574.68 523.78 655.94 510.88 660.5 509.48 579.25"/></g><polygon class="cls-12" points="244.78 655.83 75.88 662.73 149.05 642.56 240.78 638.35 244.78 655.83"/><rect class="cls-12" x="794.78" y="652.97" width="102" height="3.27"/></g><polygon class="cls-5" points="271.3 275.89 301.46 276.06 299.39 267.74 272.84 267.03 271.3 275.89"/><line class="cls-5" x1="276.63" y1="245.89" x2="293.98" y2="245.99"/><polygon class="cls-5" points="276.3 250 294.87 250 292.87 242 277.84 241.14 276.3 250"/></g><g id="Layer_2-2" data-name="Layer 2"><rect class="cls-8" x="1148.87" y="656" width="12" height="13"/><rect class="cls-8" x="1174.87" y="656" width="12" height="13"/><rect class="cls-8" x="1219.87" y="656" width="12" height="13"/><rect class="cls-8" x="1174.87" y="685" width="12" height="13"/><rect class="cls-8" x="1010.87" y="711" width="75" height="13"/><polygon class="cls-12" points="1004.78 757.23 887.87 757 810.49 746.99 824.54 738 885.58 745.98 993.87 750 1015.2 750 1004.78 757.23"/><polygon class="cls-12" points="868.87 738 899.87 733 899.87 745.46 868.87 738"/><rect class="cls-8" x="910.87" y="659" width="12" height="13"/><rect class="cls-8" x="927.87" y="659" width="12" height="13"/><rect class="cls-8" x="944.87" y="659" width="12" height="13"/><rect class="cls-8" x="961.87" y="659" width="12" height="13"/><rect class="cls-8" x="978.87" y="659" width="12" height="13"/><rect class="cls-8" x="910.87" y="687" width="12" height="13"/><rect class="cls-8" x="927.87" y="687" width="12" height="13"/><rect class="cls-8" x="944.87" y="687" width="12" height="13"/><rect class="cls-8" x="961.87" y="687" width="12" height="13"/><rect class="cls-8" x="972.87" y="717" width="12" height="13"/><rect class="cls-8" x="800.87" y="662" width="12" height="13"/><rect class="cls-8" x="817.87" y="662" width="12" height="13"/><rect class="cls-8" x="834.87" y="662" width="12" height="13"/><rect class="cls-8" x="851.87" y="662" width="37" height="13"/><rect class="cls-8" x="851.87" y="703" width="37" height="30"/><polygon class="cls-25" points="763.87 681 741.87 675 741.87 662 763.87 666 763.87 681"/><polygon class="cls-25" points="642.87 675 620.87 665 620.87 652 642.87 662 642.87 675"/><polygon class="cls-25" points="714.87 705 692.87 695 692.87 682 714.87 692 714.87 705"/><rect class="cls-8" x="675.87" y="484" width="12" height="13"/><rect class="cls-8" x="690.87" y="484" width="12" height="13"/><rect class="cls-8" x="675.87" y="514" width="12" height="13"/><rect class="cls-8" x="690.87" y="514" width="12" height="13"/><rect class="cls-8" x="705.87" y="514" width="12" height="13"/><rect class="cls-8" x="675.87" y="544" width="12" height="13"/><rect class="cls-8" x="705.87" y="544" width="12" height="13"/><polygon class="cls-8" points="623.87 612 597.87 620 597.87 604 623.87 599 623.87 612"/><polygon class="cls-25" points="588.87 636 577.87 629 577.87 616 588.87 622 588.87 636"/><rect class="cls-8" x="196.87" y="575" width="21" height="21" rx="10.5" ry="10.5"/><polygon class="cls-25" points="488.87 606 451.87 596 451.87 583 488.87 591 488.87 606"/><polygon class="cls-8" points="520.87 642 500.87 650 500.87 634 520.87 626 520.87 642"/><polygon class="cls-8" points="412.87 642 350.87 634 350.87 628 412.87 635 412.87 642"/><rect class="cls-8" x="245.87" y="612" width="28" height="16"/><path class="cls-8" d="M956.87,507h-16V483a8,8,0,0,1,8-8h0a8,8,0,0,1,8,8Z"/><rect class="cls-8" x="1012.87" y="483" width="12" height="13"/></g></svg>