<svg id="Layer_8" data-name="Layer 8" xmlns="http://www.w3.org/2000/svg" xmlns:xlink="http://www.w3.org/1999/xlink" viewBox="0 0 1245.33 879.92"><defs><style>.cls-1{fill:#83fff9;}.cls-2{fill:#686b6b;}.cls-3{fill:#f7ff7f;}.cls-4{fill:#80ff86;}.cls-5{fill:#fff;stroke:#00d0ff;stroke-miterlimit:10;}.cls-6{fill:#00d0ff;}</style></defs><title>Untitled-1</title><g id="Layer_1" data-name="Layer 1"><image width="591" height="396" transform="translate(82.74 106.73) scale(1.94)" xlink:href="../Desktop/Screen Shot 2018-05-14 at 11.32.08 AM.png"/></g><g id="Layer_6" data-name="Layer 6"><polygon class="cls-1" points="1245.33 434.83 0.13 439.48 0.13 10.28 1245.33 0 1245.33 434.83"/><polygon class="cls-1" points="0 1.39 0.13 99.6 863 78.39 1084 0.39 0 1.39"/></g><g id="Layer_3" data-name="Layer 3"><path class="cls-2" d="M205.23,610.8l4.86-.18c45.44-1.61,396-13.14,482,11.78,92,26.67-33.33,87.33-33.33,87.33l-134,16.67h-126" transform="translate(-205.11)"/><path class="cls-2" d="M937.77,694.05s-94.53-38-342.6-80.35-98.07,122.82-98.07,122.82l413.33,38.84,30.67-54Z" transform="translate(-205.11)"/><path class="cls-2" d="M1447.77,699l-3.34.18c-44.36,2.33-516.11,25.93-553.14-20.48-38.86-48.7-52.19,63.3-52.19,63.3l314,44.67,183.33,2.67,114-28" transform="translate(-205.11)"/><polyline class="cls-3" points="671.33 672.72 867 780.72 954.67 772.72"/></g><g id="Layer_5" data-name="Layer 5"><path class="cls-4" d="M213.92,304.24s397.39-47.69,422.86-8.74,173.54-26,173.54-26-35-34.08,210.09,0,249.92,60.05,249.92,60.05,47.46,17.68,93,27.63c39.53,8.63,77.64,11.45,82.07-8.16,9.55-42.2-9.55,446.32-9.55,446.32l-372.49-16.74L810.32,756.81,612.91,730.48,511,711,388.46,693.14,228.55,665.5l-20.31-9.93" transform="translate(-205.11)"/><polygon class="cls-4" points="3 606.38 0.13 306.18 133.15 291.45 140 466.38 3 606.38"/><polygon class="cls-4" points="1154 635.38 1243 683.38 1244.89 402.23 1109 445.38 1154 635.38"/></g><g id="Layer_4" data-name="Layer 4"><path class="cls-3" d="M213.3,615s354.84-83.15,882.26,110.39S681,844.7,681,844.7L205.23,840V615" transform="translate(-205.11)"/><path class="cls-3" d="M1395.28,787.87s117.32-100.26-564.59-42.38,591,113.18,591,113.18" transform="translate(-205.11)"/><path class="cls-3" d="M940.29,699s55.63,28.47,295.95,28.45,0,96.76,0,96.76l-227.42,27.42L794.3,809.75,662,736.52" transform="translate(-205.11)"/><path class="cls-3" d="M1275.1,814.05,1395,774.89s21.11-105.68-119.51-91.83q-3.27.32-6.66.73c-73.47,8.88-156.59,6.21-221.65,1.27-65.93-5-113.31-12.34-113.31-12.34" transform="translate(-205.11)"/><path class="cls-3" d="M1243.78,716.26s-250.66,1.46-339-28.07-35,77.86-35,77.86l381.58,20.37Z" transform="translate(-205.11)"/><line class="cls-4" x1="925.16" y1="704.86" x2="946.15" y2="714.92"/><polyline class="cls-3" points="1245 666.38 1064 683.38 1094.63 746.91 1245 802.38"/></g><g id="Layer_2" data-name="Layer 2"><path class="cls-5" d="M1528.17,375.87" transform="translate(-205.11)"/><path class="cls-5" d="M1489.46,348.45" transform="translate(-205.11)"/><path class="cls-1" d="M565.22,796.46a1.5,1.5,0,0,0,0-3,1.5,1.5,0,0,0,0,3Z" transform="translate(-205.11)"/><path class="cls-6" d="M261.74,627.39l-21.91.07-11.63,0V879.92l1182.09-.84,37.81-.12V802.23l-31.16-15.7-816.18-25L286,627.31l-57.8,66.4,79.67,148.16,303.07-2.12,342.12,9.09s407.74,73.45,478-18.55S960.88,704.93,960.88,704.93s-153.1-30.09-262.45-44.47-71.86-10-71.86-10-54.25-6-118.53-11.89c-18.82-1.72-38.5-3.42-57.92-5-29.4-2.32-58.22-4.26-82.62-5.28-9.72-.4-18.74-.66-26.81-.74-87.48-.85-32.81.11-32.81.11" transform="translate(-205.11)"/><path class="cls-6" d="M452.11,683.39" transform="translate(-205.11)"/><polygon class="cls-6" points="274.96 636.14 122.53 627.29 3 631.38 0 879.38 375.16 879.92 274.96 636.14"/></g></svg>